<svg xmlns="http://www.w3.org/2000/svg" style="display:none">

  <!-- HOME -->
  <symbol id="ic-home" viewBox="0 0 24 24">
    <path d="M4 11.5L12 5l8 6.5" fill="none"
      stroke="currentColor" stroke-width="2"
      stroke-linecap="round" stroke-linejoin="round"/>
    <path d="M6.5 10.8V19h11V10.8" fill="none"
      stroke="currentColor" stroke-width="2"
      stroke-linecap="round"/>
  </symbol>

  <!-- CHAT -->
  <symbol id="ic-chat" viewBox="0 0 24 24">
    <path d="M5 6.8h14a2.2 2.2 0 0 1 2 2.3v5.6
             a2.2 2.2 0 0 1-2 2.3H9l-4 3v-3H5
             a2.2 2.2 0 0 1-2-2.3V9.1
             A2.2 2.2 0 0 1 5 6.8z"
      fill="none" stroke="currentColor"
      stroke-width="2" stroke-linejoin="round"/>
  </symbol>

  <!-- SEARCH -->
  <symbol id="ic-search" viewBox="0 0 24 24">
    <circle cx="11" cy="11" r="6.5"
      fill="none" stroke="currentColor" stroke-width="2"/>
    <path d="M16 16l4 4"
      stroke="currentColor" stroke-width="2"
      stroke-linecap="round"/>
  </symbol>

  <!-- ADD -->
  <symbol id="ic-add" viewBox="0 0 24 24">
    <path d="M12 5v14M5 12h14"
      stroke="currentColor" stroke-width="2"
      stroke-linecap="round"/>
  </symbol>

  <!-- SETTINGS -->
  <symbol id="ic-setting" viewBox="0 0 24 24">
    <circle cx="12" cy="12" r="3"
      fill="none" stroke="currentColor" stroke-width="2"/>
    <path d="M4.5 12h2.5M17 12h2.5
             M12 4.5v2.5M12 17v2.5"
      stroke="currentColor" stroke-width="1.8"
      stroke-linecap="round"/>
  </symbol>

  <!-- BADGE DOT -->
  <symbol id="ic-dot" viewBox="0 0 8 8">
    <circle cx="4" cy="4" r="4" fill="currentColor"/>
  </symbol>

</svg>